<?xml version="1.0" encoding="UTF-8"?>
<!DOCTYPE svg PUBLIC "-//W3C//DTD SVG 1.1//EN" "http://www.w3.org/Graphics/SVG/1.1/DTD/svg11.dtd">
<svg xmlns="http://www.w3.org/2000/svg" version="1.1" width="1200px" height="1200px" style="shape-rendering:geometricPrecision; text-rendering:geometricPrecision; image-rendering:optimizeQuality; fill-rule:evenodd; clip-rule:evenodd" xmlns:xlink="http://www.w3.org/1999/xlink">
<g><path style="opacity:0.973" fill="#056da5" d="M -0.5,0.5 C -0.5,0.166667 -0.5,-0.166667 -0.5,-0.5C 399.5,-0.5 799.5,-0.5 1199.5,-0.5C 1199.5,-0.166667 1199.5,0.166667 1199.5,0.5C 1014.5,0.333334 829.5,0.500001 644.5,1C 811.424,16.5381 949.257,87.3715 1058,213.5C 1174.88,358.685 1217.88,523.685 1187,708.5C 1151.53,880.837 1060.03,1014 912.5,1108C 776.682,1188.92 631.016,1214.25 475.5,1184C 307.268,1145.67 177.434,1053.83 86,908.5C 32.8184,819.437 3.98507,723.104 -0.5,619.5C -0.5,604.833 -0.5,590.167 -0.5,575.5C 11.2005,382.898 93.5339,228.731 246.5,113C 337.93,47.626 439.93,10.2927 552.5,1C 368.167,0.500001 183.834,0.333334 -0.5,0.5 Z M 568.5,14.5 C 750.576,9.32953 904.076,72.3295 1029,203.5C 1150.19,340.785 1199.19,500.785 1176,683.5C 1149.31,844.802 1070.81,973.969 940.5,1071C 811.11,1161.84 667.777,1196.51 510.5,1175C 330.03,1143.59 191.863,1050.42 96,895.5C 17.5606,758.763 -4.10611,613.429 31,459.5C 72.8876,300.686 163.721,178.853 303.5,94C 385.684,46.7698 474.018,20.2698 568.5,14.5 Z M 565.5,24.5 C 751.949,18.5155 907.449,84.1822 1032,221.5C 1140.92,350.979 1186.26,500.313 1168,669.5C 1159.34,735.817 1140.01,798.817 1110,858.5C 1109.5,857.333 1108.67,856.5 1107.5,856C 1074.02,842.425 1040.69,828.592 1007.5,814.5C 1068.93,692.726 1077.43,567.393 1033,438.5C 990.719,327.889 917.553,244.389 813.5,188C 701.498,131.697 585.165,120.697 464.5,155C 341.467,194.052 249.3,270.219 188,383.5C 128.986,501.767 119.986,623.767 161,749.5C 168.517,771.202 177.683,792.202 188.5,812.5C 154.071,827.457 119.571,841.457 85,854.5C 19.9042,720.357 7.23752,581.357 47,437.5C 99.0954,270.749 203.929,149.916 361.5,75C 426.574,45.8979 494.574,29.0646 565.5,24.5 Z M 416.5,97.5 C 425.643,96.1548 432.476,99.4882 437,107.5C 441.925,116.259 442.592,125.259 439,134.5C 428.639,145.33 418.639,144.996 409,133.5C 403.251,124.576 402.251,115.242 406,105.5C 408.806,101.853 412.306,99.1859 416.5,97.5 Z M 569.5,143.5 C 713.479,137.942 834.979,186.942 934,290.5C 1033.9,404.609 1070.74,536.776 1044.5,687C 1016.48,815.263 947.483,914.596 837.5,985C 724.087,1052.49 603.421,1069.49 475.5,1036C 344.183,996.34 248.016,915.173 187,792.5C 134.542,676.558 129.542,558.558 172,438.5C 218.081,321.751 297.914,236.584 411.5,183C 462,160.708 514.667,147.542 569.5,143.5 Z M 551.5,336.5 C 545.892,340.439 540.892,345.106 536.5,350.5C 513.201,373.298 490.035,396.298 467,419.5C 466.333,420.5 466.333,421.5 467,422.5C 587.014,542.347 706.847,662.347 826.5,782.5C 763.958,846.209 700.625,909.042 636.5,971C 617.654,982.977 597.654,985.311 576.5,978C 565.396,973.617 555.063,967.951 545.5,961C 502.137,917.305 459.137,873.305 416.5,829C 467.347,778.652 518.347,728.486 569.5,678.5C 577.486,685.985 585.319,693.652 593,701.5C 593.667,702.167 593.667,702.833 593,703.5C 560.167,736.333 527.333,769.167 494.5,802C 520.22,827.055 545.887,852.055 571.5,877C 591.447,889.982 611.114,889.648 630.5,876C 662,844.5 693.5,813 725,781.5C 725.667,780.833 725.667,780.167 725,779.5C 604.986,659.653 485.153,539.653 365.5,419.5C 425.653,358.847 485.986,298.347 546.5,238C 567.774,218.145 592.107,213.145 619.5,223C 630.442,227.134 640.442,232.801 649.5,240C 700.861,291.694 752.528,343.028 804.5,394C 752.32,446.347 699.986,498.514 647.5,550.5C 640.564,542.732 633.064,535.399 625,528.5C 624.333,527.833 624.333,527.167 625,526.5C 659.014,492.653 692.847,458.653 726.5,424.5C 692.623,389.456 657.957,355.289 622.5,322C 594.593,306.731 570.927,311.564 551.5,336.5 Z M 150.5,323.5 C 158.192,325.139 165.859,326.973 173.5,329C 170.292,333.247 167.458,337.747 165,342.5C 159.664,336.467 154.83,330.133 150.5,323.5 Z M 109.5,393.5 C 115.723,392.271 119.723,394.605 121.5,400.5C 119.494,407.684 116.994,414.684 114,421.5C 108.86,419.63 104.027,417.297 99.5,414.5C 102.082,407.057 105.416,400.057 109.5,393.5 Z M 829.5,421.5 C 873.416,463.916 916.916,506.916 960,550.5C 968.504,560.828 975.504,572.162 981,584.5C 989.75,603.494 987.75,621.161 975,637.5C 935.32,677.347 895.486,717.014 855.5,756.5C 795.5,697.167 735.833,637.5 676.5,577.5C 684.152,569.348 691.985,561.348 700,553.5C 742,595.5 784,637.5 826,679.5C 843.333,662.167 860.667,644.833 878,627.5C 885.785,614.556 886.451,601.222 880,587.5C 873.378,572.546 864.044,559.546 852,548.5C 826.681,524.348 801.848,499.681 777.5,474.5C 794.855,456.813 812.188,439.146 829.5,421.5 Z M 1099.5,429.5 C 1100.5,429.5 1101.5,429.5 1102.5,429.5C 1104.48,436.079 1106.14,442.745 1107.5,449.5C 1107.23,454.44 1104.56,457.106 1099.5,457.5C 1097.3,457.152 1095.47,456.152 1094,454.5C 1091.1,447.792 1088.6,440.959 1086.5,434C 1091.1,432.943 1095.43,431.443 1099.5,429.5 Z M 338.5,446.5 C 375.479,482.812 412.146,519.479 448.5,556.5C 440.848,564.652 433.015,572.652 425,580.5C 406.5,562 388,543.5 369.5,525C 368.5,524.333 367.5,524.333 366.5,525C 354.667,536.833 342.833,548.667 331,560.5C 320.329,573.017 314.162,587.517 312.5,604C 313.191,615.413 317.024,625.58 324,634.5C 345.347,656.014 366.847,677.347 388.5,698.5C 421.5,665.833 454.5,633.167 487.5,600.5C 505.319,617.819 522.986,635.319 540.5,653C 489.333,704.167 438.167,755.333 387,806.5C 335.667,755.167 284.333,703.833 233,652.5C 214.107,629.929 210.107,604.929 221,577.5C 225.097,567.091 230.43,557.424 237,548.5C 271.035,514.632 304.868,480.632 338.5,446.5 Z M 190.5,820.5 C 192.017,820.511 193.184,821.177 194,822.5C 195.247,825.329 196.747,827.995 198.5,830.5C 198.291,831.086 197.957,831.586 197.5,832C 164.711,847.561 132.044,863.394 99.5,879.5C 95.6802,874.539 92.3468,869.206 89.5,863.5C 123.151,848.955 156.818,834.622 190.5,820.5 Z M 1003.5,820.5 C 1006.65,820.737 1009.65,821.57 1012.5,823C 1044.31,836.075 1075.98,849.409 1107.5,863C 1104.13,869.58 1100.63,876.08 1097,882.5C 1063.61,865.888 1030.11,849.388 996.5,833C 999.49,829.182 1001.82,825.016 1003.5,820.5 Z M 202.5,838.5 C 205.5,842.187 208.166,846.187 210.5,850.5C 178.241,868.881 145.741,886.881 113,904.5C 109.374,898.75 105.874,892.916 102.5,887C 136.047,871.059 169.38,854.892 202.5,838.5 Z M 993.5,838.5 C 1027.14,854.655 1060.81,870.822 1094.5,887C 1090.46,893.585 1086.29,900.085 1082,906.5C 1049.74,888.286 1017.24,870.452 984.5,853C 987.386,848.055 990.386,843.221 993.5,838.5 Z M 214.5,857.5 C 217.797,860.736 220.63,864.403 223,868.5C 223.688,869.332 223.521,869.998 222.5,870.5C 191.534,889.636 160.7,908.969 130,928.5C 126.089,923.678 122.422,918.678 119,913.5C 118.251,912.365 118.417,911.365 119.5,910.5C 151.39,893.059 183.057,875.392 214.5,857.5 Z M 981.5,857.5 C 1013.97,875.234 1046.3,893.234 1078.5,911.5C 1074.86,917.634 1071.03,923.634 1067,929.5C 1066.28,930.451 1065.45,930.617 1064.5,930C 1033.33,910.583 1002.33,890.916 971.5,871C 974.964,866.559 978.298,862.059 981.5,857.5 Z M 227.5,876.5 C 228.496,876.414 229.329,876.748 230,877.5C 232.139,880.939 234.639,884.106 237.5,887C 207.245,908.711 177.078,930.544 147,952.5C 143,947.167 139,941.833 135,936.5C 134.312,935.668 134.479,935.002 135.5,934.5C 166.473,915.501 197.14,896.168 227.5,876.5 Z M 967.5,876.5 C 999.063,895.383 1030.4,914.717 1061.5,934.5C 1062.52,935.002 1062.69,935.668 1062,936.5C 1057.33,942.5 1052.67,948.5 1048,954.5C 1017.92,932.544 987.755,910.711 957.5,889C 961.202,885.077 964.536,880.91 967.5,876.5 Z M 241.5,893.5 C 245.497,896.971 249.163,900.804 252.5,905C 223.575,928.38 194.742,951.88 166,975.5C 161.62,969.908 157.12,964.408 152.5,959C 182.349,937.303 212.016,915.47 241.5,893.5 Z M 953.5,893.5 C 984.157,914.834 1014.49,936.667 1044.5,959C 1038.96,964.874 1033.79,971.041 1029,977.5C 1000.17,954 971.333,930.5 942.5,907C 946.403,902.607 950.069,898.107 953.5,893.5 Z M 256.5,911.5 C 260.57,914.06 264.236,917.227 267.5,921C 240.532,945.634 213.865,970.634 187.5,996C 181.346,992.189 176.013,987.189 171.5,981C 200.022,957.969 228.356,934.802 256.5,911.5 Z M 938.5,911.5 C 967.126,934.287 995.626,957.287 1024,980.5C 1020.45,987.079 1015.62,992.912 1009.5,998C 1008.83,998.667 1008.17,998.667 1007.5,998C 980.532,973.366 953.865,948.366 927.5,923C 931.37,919.298 935.037,915.464 938.5,911.5 Z M 272.5,927.5 C 276.402,929.893 279.902,932.893 283,936.5C 283.667,937.167 283.667,937.833 283,938.5C 258.031,965.137 232.697,991.47 207,1017.5C 201.985,1012.65 197.152,1007.65 192.5,1002.5C 219.213,977.45 245.88,952.45 272.5,927.5 Z M 922.5,927.5 C 949.963,952.461 977.297,977.627 1004.5,1003C 999.167,1008.33 993.833,1013.67 988.5,1019C 985.224,1017.76 982.391,1015.6 980,1012.5C 956.833,988 933.667,963.5 910.5,939C 915.002,935.664 919.002,931.831 922.5,927.5 Z M 289.5,943.5 C 293.272,946.094 296.939,948.927 300.5,952C 277.071,980.186 253.404,1008.19 229.5,1036C 223.638,1032.68 218.304,1028.35 213.5,1023C 238.672,996.328 264.006,969.828 289.5,943.5 Z M 905.5,943.5 C 931.42,969.256 956.92,995.589 982,1022.5C 982.667,1023.17 982.667,1023.83 982,1024.5C 976.833,1029 971.667,1033.5 966.5,1038C 965.004,1038.51 963.837,1038.01 963,1036.5C 940.709,1009.21 918.043,982.207 895,955.5C 894.251,954.365 894.417,953.365 895.5,952.5C 898.879,949.449 902.212,946.449 905.5,943.5 Z M 306.5,957.5 C 310.291,960.118 313.957,962.951 317.5,966C 295.333,995.5 273.167,1025 251,1054.5C 245.544,1050.71 240.377,1046.55 235.5,1042C 259.056,1013.71 282.722,985.543 306.5,957.5 Z M 888.5,957.5 C 912.844,985.015 936.677,1013.01 960,1041.5C 960.617,1042.45 960.451,1043.28 959.5,1044C 954,1048.17 948.5,1052.33 943,1056.5C 920.833,1027 898.667,997.5 876.5,968C 880.693,964.635 884.693,961.135 888.5,957.5 Z M 323.5,971.5 C 340.305,982.102 357.305,992.602 374.5,1003C 491.992,1065.01 614.325,1076.68 741.5,1038C 788.398,1022.39 831.731,1000.22 871.5,971.5C 893.994,1000.83 916.327,1030.33 938.5,1060C 810.223,1152.07 667.556,1187.07 510.5,1165C 417.962,1150.4 334.128,1115.56 259,1060.5C 259.044,1058.72 259.711,1057.05 261,1055.5C 282.086,1027.65 302.919,999.649 323.5,971.5 Z M 822.5,1039.5 C 823.477,1042.29 823.81,1045.29 823.5,1048.5C 825.696,1048.57 827.696,1049.23 829.5,1050.5C 827.902,1053.6 825.735,1056.27 823,1058.5C 822.313,1056.43 822.48,1054.43 823.5,1052.5C 822.5,1050.17 820.833,1048.5 818.5,1047.5C 819.32,1044.53 820.653,1041.86 822.5,1039.5 Z M 809.5,1042.5 C 810.822,1042.33 811.989,1042.66 813,1043.5C 813.419,1045.68 813.252,1047.85 812.5,1050C 814.118,1051.98 815.451,1054.15 816.5,1056.5C 816.743,1058.92 815.743,1060.59 813.5,1061.5C 810.665,1056.66 808.665,1051.5 807.5,1046C 808.305,1044.89 808.972,1043.72 809.5,1042.5 Z M 387.5,1055.5 C 390.588,1055.38 393.255,1056.38 395.5,1058.5C 393.187,1061.33 390.187,1062.5 386.5,1062C 385.572,1061.61 384.905,1060.95 384.5,1060C 385.315,1058.36 386.315,1056.86 387.5,1055.5 Z M 831.5,1094.5 C 834.951,1100.55 832.951,1103.55 825.5,1103.5C 826.26,1099.64 828.26,1096.64 831.5,1094.5 Z"/></g>
<g><path style="opacity:0.899" fill="#026fa9" d="M 570.5,19.5 C 752.555,14.7494 905.388,78.4161 1029,210.5C 1148.25,348.31 1195.25,507.977 1170,689.5C 1142.04,847.011 1064.21,973.178 936.5,1068C 806.225,1158.9 662.225,1192.56 504.5,1169C 348.923,1141.01 224.09,1064.18 130,938.5C 32.2987,799.014 -0.367946,645.347 32,477.5C 65.5077,329.878 143.341,212.045 265.5,124C 357.23,60.5887 458.897,25.7554 570.5,19.5 Z M 565.5,24.5 C 494.574,29.0646 426.574,45.8979 361.5,75C 203.929,149.916 99.0954,270.749 47,437.5C 7.23752,581.357 19.9042,720.357 85,854.5C 119.571,841.457 154.071,827.457 188.5,812.5C 177.683,792.202 168.517,771.202 161,749.5C 119.986,623.767 128.986,501.767 188,383.5C 249.3,270.219 341.467,194.052 464.5,155C 585.165,120.697 701.498,131.697 813.5,188C 917.553,244.389 990.719,327.889 1033,438.5C 1077.43,567.393 1068.93,692.726 1007.5,814.5C 1040.69,828.592 1074.02,842.425 1107.5,856C 1108.67,856.5 1109.5,857.333 1110,858.5C 1140.01,798.817 1159.34,735.817 1168,669.5C 1186.26,500.313 1140.92,350.979 1032,221.5C 907.449,84.1822 751.949,18.5155 565.5,24.5 Z M 416.5,97.5 C 412.306,99.1859 408.806,101.853 406,105.5C 402.251,115.242 403.251,124.576 409,133.5C 418.639,144.996 428.639,145.33 439,134.5C 442.592,125.259 441.925,116.259 437,107.5C 432.476,99.4882 425.643,96.1548 416.5,97.5 Z M 569.5,143.5 C 514.667,147.542 462,160.708 411.5,183C 297.914,236.584 218.081,321.751 172,438.5C 129.542,558.558 134.542,676.558 187,792.5C 248.016,915.173 344.183,996.34 475.5,1036C 603.421,1069.49 724.087,1052.49 837.5,985C 947.483,914.596 1016.48,815.263 1044.5,687C 1070.74,536.776 1033.9,404.609 934,290.5C 834.979,186.942 713.479,137.942 569.5,143.5 Z M 551.5,336.5 C 545.892,340.439 540.892,345.106 536.5,350.5C 513.201,373.298 490.035,396.298 467,419.5C 466.333,420.5 466.333,421.5 467,422.5C 587.014,542.347 706.847,662.347 826.5,782.5C 763.958,846.209 700.625,909.042 636.5,971C 617.654,982.977 597.654,985.311 576.5,978C 565.396,973.617 555.063,967.951 545.5,961C 502.137,917.305 459.137,873.305 416.5,829C 467.347,778.652 518.347,728.486 569.5,678.5C 577.486,685.985 585.319,693.652 593,701.5C 593.667,702.167 593.667,702.833 593,703.5C 560.167,736.333 527.333,769.167 494.5,802C 520.22,827.055 545.887,852.055 571.5,877C 591.447,889.982 611.114,889.648 630.5,876C 662,844.5 693.5,813 725,781.5C 725.667,780.833 725.667,780.167 725,779.5C 604.986,659.653 485.153,539.653 365.5,419.5C 425.653,358.847 485.986,298.347 546.5,238C 567.774,218.145 592.107,213.145 619.5,223C 630.442,227.134 640.442,232.801 649.5,240C 700.861,291.694 752.528,343.028 804.5,394C 752.32,446.347 699.986,498.514 647.5,550.5C 640.564,542.732 633.064,535.399 625,528.5C 624.333,527.833 624.333,527.167 625,526.5C 659.014,492.653 692.847,458.653 726.5,424.5C 692.623,389.456 657.957,355.289 622.5,322C 594.593,306.731 570.927,311.564 551.5,336.5 Z M 150.5,323.5 C 154.83,330.133 159.664,336.467 165,342.5C 167.458,337.747 170.292,333.247 173.5,329C 165.859,326.973 158.192,325.139 150.5,323.5 Z M 109.5,393.5 C 105.416,400.057 102.082,407.057 99.5,414.5C 104.027,417.297 108.86,419.63 114,421.5C 116.994,414.684 119.494,407.684 121.5,400.5C 119.723,394.605 115.723,392.271 109.5,393.5 Z M 829.5,421.5 C 812.188,439.146 794.855,456.813 777.5,474.5C 801.848,499.681 826.681,524.348 852,548.5C 864.044,559.546 873.378,572.546 880,587.5C 886.451,601.222 885.785,614.556 878,627.5C 860.667,644.833 843.333,662.167 826,679.5C 784,637.5 742,595.5 700,553.5C 691.985,561.348 684.152,569.348 676.5,577.5C 735.833,637.5 795.5,697.167 855.5,756.5C 895.486,717.014 935.32,677.347 975,637.5C 987.75,621.161 989.75,603.494 981,584.5C 975.504,572.162 968.504,560.828 960,550.5C 916.916,506.916 873.416,463.916 829.5,421.5 Z M 1099.5,429.5 C 1095.43,431.443 1091.1,432.943 1086.5,434C 1088.6,440.959 1091.1,447.792 1094,454.5C 1095.47,456.152 1097.3,457.152 1099.5,457.5C 1104.56,457.106 1107.23,454.44 1107.5,449.5C 1106.14,442.745 1104.48,436.079 1102.5,429.5C 1101.5,429.5 1100.5,429.5 1099.5,429.5 Z M 338.5,446.5 C 304.868,480.632 271.035,514.632 237,548.5C 230.43,557.424 225.097,567.091 221,577.5C 210.107,604.929 214.107,629.929 233,652.5C 284.333,703.833 335.667,755.167 387,806.5C 438.167,755.333 489.333,704.167 540.5,653C 522.986,635.319 505.319,617.819 487.5,600.5C 454.5,633.167 421.5,665.833 388.5,698.5C 366.847,677.347 345.347,656.014 324,634.5C 317.024,625.58 313.191,615.413 312.5,604C 314.162,587.517 320.329,573.017 331,560.5C 342.833,548.667 354.667,536.833 366.5,525C 367.5,524.333 368.5,524.333 369.5,525C 388,543.5 406.5,562 425,580.5C 433.015,572.652 440.848,564.652 448.5,556.5C 412.146,519.479 375.479,482.812 338.5,446.5 Z M 190.5,820.5 C 156.818,834.622 123.151,848.955 89.5,863.5C 92.3468,869.206 95.6802,874.539 99.5,879.5C 132.044,863.394 164.711,847.561 197.5,832C 197.957,831.586 198.291,831.086 198.5,830.5C 196.747,827.995 195.247,825.329 194,822.5C 193.184,821.177 192.017,820.511 190.5,820.5 Z M 1003.5,820.5 C 1001.82,825.016 999.49,829.182 996.5,833C 1030.11,849.388 1063.61,865.888 1097,882.5C 1100.63,876.08 1104.13,869.58 1107.5,863C 1075.98,849.409 1044.31,836.075 1012.5,823C 1009.65,821.57 1006.65,820.737 1003.5,820.5 Z M 202.5,838.5 C 169.38,854.892 136.047,871.059 102.5,887C 105.874,892.916 109.374,898.75 113,904.5C 145.741,886.881 178.241,868.881 210.5,850.5C 208.166,846.187 205.5,842.187 202.5,838.5 Z M 993.5,838.5 C 990.386,843.221 987.386,848.055 984.5,853C 1017.24,870.452 1049.74,888.286 1082,906.5C 1086.29,900.085 1090.46,893.585 1094.5,887C 1060.81,870.822 1027.14,854.655 993.5,838.5 Z M 214.5,857.5 C 183.057,875.392 151.39,893.059 119.5,910.5C 118.417,911.365 118.251,912.365 119,913.5C 122.422,918.678 126.089,923.678 130,928.5C 160.7,908.969 191.534,889.636 222.5,870.5C 223.521,869.998 223.688,869.332 223,868.5C 220.63,864.403 217.797,860.736 214.5,857.5 Z M 981.5,857.5 C 978.298,862.059 974.964,866.559 971.5,871C 1002.33,890.916 1033.33,910.583 1064.5,930C 1065.45,930.617 1066.28,930.451 1067,929.5C 1071.03,923.634 1074.86,917.634 1078.5,911.5C 1046.3,893.234 1013.97,875.234 981.5,857.5 Z M 227.5,876.5 C 197.14,896.168 166.473,915.501 135.5,934.5C 134.479,935.002 134.312,935.668 135,936.5C 139,941.833 143,947.167 147,952.5C 177.078,930.544 207.245,908.711 237.5,887C 234.639,884.106 232.139,880.939 230,877.5C 229.329,876.748 228.496,876.414 227.5,876.5 Z M 967.5,876.5 C 964.536,880.91 961.202,885.077 957.5,889C 987.755,910.711 1017.92,932.544 1048,954.5C 1052.67,948.5 1057.33,942.5 1062,936.5C 1062.69,935.668 1062.52,935.002 1061.5,934.5C 1030.4,914.717 999.063,895.383 967.5,876.5 Z M 241.5,893.5 C 212.016,915.47 182.349,937.303 152.5,959C 157.12,964.408 161.62,969.908 166,975.5C 194.742,951.88 223.575,928.38 252.5,905C 249.163,900.804 245.497,896.971 241.5,893.5 Z M 953.5,893.5 C 950.069,898.107 946.403,902.607 942.5,907C 971.333,930.5 1000.17,954 1029,977.5C 1033.79,971.041 1038.96,964.874 1044.5,959C 1014.49,936.667 984.157,914.834 953.5,893.5 Z M 256.5,911.5 C 228.356,934.802 200.022,957.969 171.5,981C 176.013,987.189 181.346,992.189 187.5,996C 213.865,970.634 240.532,945.634 267.5,921C 264.236,917.227 260.57,914.06 256.5,911.5 Z M 938.5,911.5 C 935.037,915.464 931.37,919.298 927.5,923C 953.865,948.366 980.532,973.366 1007.5,998C 1008.17,998.667 1008.83,998.667 1009.5,998C 1015.62,992.912 1020.45,987.079 1024,980.5C 995.626,957.287 967.126,934.287 938.5,911.5 Z M 272.5,927.5 C 245.88,952.45 219.213,977.45 192.5,1002.5C 197.152,1007.65 201.985,1012.65 207,1017.5C 232.697,991.47 258.031,965.137 283,938.5C 283.667,937.833 283.667,937.167 283,936.5C 279.902,932.893 276.402,929.893 272.5,927.5 Z M 922.5,927.5 C 919.002,931.831 915.002,935.664 910.5,939C 933.667,963.5 956.833,988 980,1012.5C 982.391,1015.6 985.224,1017.76 988.5,1019C 993.833,1013.67 999.167,1008.33 1004.5,1003C 977.297,977.627 949.963,952.461 922.5,927.5 Z M 289.5,943.5 C 264.006,969.828 238.672,996.328 213.5,1023C 218.304,1028.35 223.638,1032.68 229.5,1036C 253.404,1008.19 277.071,980.186 300.5,952C 296.939,948.927 293.272,946.094 289.5,943.5 Z M 905.5,943.5 C 902.212,946.449 898.879,949.449 895.5,952.5C 894.417,953.365 894.251,954.365 895,955.5C 918.043,982.207 940.709,1009.21 963,1036.5C 963.837,1038.01 965.004,1038.51 966.5,1038C 971.667,1033.5 976.833,1029 982,1024.5C 982.667,1023.83 982.667,1023.17 982,1022.5C 956.92,995.589 931.42,969.256 905.5,943.5 Z M 306.5,957.5 C 282.722,985.543 259.056,1013.71 235.5,1042C 240.377,1046.55 245.544,1050.71 251,1054.5C 273.167,1025 295.333,995.5 317.5,966C 313.957,962.951 310.291,960.118 306.5,957.5 Z M 888.5,957.5 C 884.693,961.135 880.693,964.635 876.5,968C 898.667,997.5 920.833,1027 943,1056.5C 948.5,1052.33 954,1048.17 959.5,1044C 960.451,1043.28 960.617,1042.45 960,1041.5C 936.677,1013.01 912.844,985.015 888.5,957.5 Z M 323.5,971.5 C 302.919,999.649 282.086,1027.65 261,1055.5C 259.711,1057.05 259.044,1058.72 259,1060.5C 334.128,1115.56 417.962,1150.4 510.5,1165C 667.556,1187.07 810.223,1152.07 938.5,1060C 916.327,1030.33 893.994,1000.83 871.5,971.5C 831.731,1000.22 788.398,1022.39 741.5,1038C 614.325,1076.68 491.992,1065.01 374.5,1003C 357.305,992.602 340.305,982.102 323.5,971.5 Z M 822.5,1039.5 C 820.653,1041.86 819.32,1044.53 818.5,1047.5C 820.833,1048.5 822.5,1050.17 823.5,1052.5C 822.48,1054.43 822.313,1056.43 823,1058.5C 825.735,1056.27 827.902,1053.6 829.5,1050.5C 827.696,1049.23 825.696,1048.57 823.5,1048.5C 823.81,1045.29 823.477,1042.29 822.5,1039.5 Z M 809.5,1042.5 C 808.972,1043.72 808.305,1044.89 807.5,1046C 808.665,1051.5 810.665,1056.66 813.5,1061.5C 815.743,1060.59 816.743,1058.92 816.5,1056.5C 815.451,1054.15 814.118,1051.98 812.5,1050C 813.252,1047.85 813.419,1045.68 813,1043.5C 811.989,1042.66 810.822,1042.33 809.5,1042.5 Z M 387.5,1055.5 C 386.315,1056.86 385.315,1058.36 384.5,1060C 384.905,1060.95 385.572,1061.61 386.5,1062C 390.187,1062.5 393.187,1061.33 395.5,1058.5C 393.255,1056.38 390.588,1055.38 387.5,1055.5 Z M 831.5,1094.5 C 828.26,1096.64 826.26,1099.64 825.5,1103.5C 832.951,1103.55 834.951,1100.55 831.5,1094.5 Z"/></g>
<g><path style="opacity:0.977" fill="#0070a8" d="M 566.5,54.5 C 584.833,54.5 603.167,54.5 621.5,54.5C 621.5,58.5 621.5,62.5 621.5,66.5C 614.833,66.5 608.167,66.5 601.5,66.5C 601.312,85.1807 601.645,103.847 602.5,122.5C 597.5,122.5 592.5,122.5 587.5,122.5C 587.767,103.81 587.434,85.1435 586.5,66.5C 579.833,66.5 573.167,66.5 566.5,66.5C 566.5,62.5 566.5,58.5 566.5,54.5 Z"/></g>
<g><path style="opacity:0.97" fill="#006fa9" d="M 655.5,56.5 C 660.593,57.037 665.593,58.037 670.5,59.5C 668.734,68.0938 667.401,76.7605 666.5,85.5C 674.796,86.2439 682.963,87.5772 691,89.5C 692.775,80.5184 694.441,71.5184 696,62.5C 700.952,63.2999 705.786,64.4666 710.5,66C 706.676,88.1089 703.01,110.276 699.5,132.5C 695.466,132.328 691.466,131.828 687.5,131C 686.376,130.161 685.709,128.994 685.5,127.5C 686.835,118.823 688.169,110.156 689.5,101.5C 681.179,99.8896 672.846,98.723 664.5,98C 662.783,107.13 661.117,116.297 659.5,125.5C 658.833,125.833 658.167,126.167 657.5,126.5C 653.505,125.739 649.505,125.072 645.5,124.5C 648.616,101.802 651.95,79.1351 655.5,56.5 Z"/></g>
<g><path style="opacity:0.967" fill="#006fa9" d="M 530.5,57.5 C 532.045,58.2297 532.878,59.563 533,61.5C 536.536,78.3764 538.869,95.3764 540,112.5C 537.3,123.632 530.134,129.799 518.5,131C 512.833,131.667 507.167,131.667 501.5,131C 496.123,129.398 491.956,126.231 489,121.5C 484.208,103.415 480.708,85.082 478.5,66.5C 482.755,66.4158 486.922,65.7491 491,64.5C 491.5,64.8333 492,65.1667 492.5,65.5C 495.128,81.6008 498.295,97.6008 502,113.5C 506.14,118.211 511.306,119.711 517.5,118C 522.866,116.3 525.533,112.634 525.5,107C 523.34,91.5375 520.673,76.2041 517.5,61C 521.839,59.6163 526.172,58.4496 530.5,57.5 Z"/></g>
<g><path style="opacity:0.967" fill="#006fa9" d="M 415.5,84.5 C 438.034,82.8533 451.534,93.1866 456,115.5C 458.62,136.879 449.453,150.046 428.5,155C 414.802,157.23 403.968,152.73 396,141.5C 387.044,127.108 386.377,112.441 394,97.5C 399.917,90.9643 407.083,86.631 415.5,84.5 Z M 416.5,97.5 C 412.306,99.1859 408.806,101.853 406,105.5C 402.251,115.242 403.251,124.576 409,133.5C 418.639,144.996 428.639,145.33 439,134.5C 442.592,125.259 441.925,116.259 437,107.5C 432.476,99.4882 425.643,96.1548 416.5,97.5 Z"/></g>
<g><path style="opacity:0.969" fill="#006fa9" d="M 836.5,109.5 C 841.732,110.591 846.065,113.091 849.5,117C 841.865,131.103 834.365,145.27 827,159.5C 826.377,165.087 828.544,169.254 833.5,172C 838.564,175.389 843.397,175.222 848,171.5C 856.333,157.167 864.667,142.833 873,128.5C 877.415,130.623 881.582,133.123 885.5,136C 877.379,151.078 868.879,165.911 860,180.5C 853.326,188.167 845.16,190.334 835.5,187C 828.1,184.218 821.6,180.051 816,174.5C 810.477,166.367 810.144,158.034 815,149.5C 822.425,136.259 829.592,122.925 836.5,109.5 Z"/></g>
<g><path style="opacity:0.967" fill="#016fa9" d="M 334.5,122.5 C 344.155,121.059 351.488,124.392 356.5,132.5C 352.881,135.65 348.881,138.316 344.5,140.5C 338.742,135.381 332.742,135.214 326.5,140C 322.328,143.18 321.662,146.847 324.5,151C 326.833,151.667 329.167,151.667 331.5,151C 339.204,148.616 347.038,146.782 355,145.5C 369.452,147.617 376.118,155.951 375,170.5C 370.585,182.482 362.085,189.982 349.5,193C 338.092,195.126 329.092,191.46 322.5,182C 326.6,179.533 330.434,176.699 334,173.5C 343.652,182.77 352.319,181.77 360,170.5C 361.545,164.911 359.545,161.578 354,160.5C 346.56,162.568 339.06,164.402 331.5,166C 315.323,167.156 307.823,159.656 309,143.5C 311.689,136.143 316.522,130.643 323.5,127C 327.266,125.441 330.932,123.941 334.5,122.5 Z"/></g>
<g><path style="opacity:0.996" fill="#006fa9" d="M 597.5,148.5 C 747.111,151.888 867.611,212.222 959,329.5C 1036.89,438.242 1063.22,558.576 1038,690.5C 1007.05,824.661 931.888,925.495 812.5,993C 705.012,1048.92 592.678,1061.25 475.5,1030C 341.003,988.833 244.503,904.333 186,776.5C 146.611,682.393 138.944,585.726 163,486.5C 196.133,366.659 265.633,274.492 371.5,210C 441.54,169.825 516.873,149.325 597.5,148.5 Z M 551.5,336.5 C 545.892,340.439 540.892,345.106 536.5,350.5C 513.201,373.298 490.035,396.298 467,419.5C 466.333,420.5 466.333,421.5 467,422.5C 587.014,542.347 706.847,662.347 826.5,782.5C 763.958,846.209 700.625,909.042 636.5,971C 617.654,982.977 597.654,985.311 576.5,978C 565.396,973.617 555.063,967.951 545.5,961C 502.137,917.305 459.137,873.305 416.5,829C 467.347,778.652 518.347,728.486 569.5,678.5C 577.486,685.985 585.319,693.652 593,701.5C 593.667,702.167 593.667,702.833 593,703.5C 560.167,736.333 527.333,769.167 494.5,802C 520.22,827.055 545.887,852.055 571.5,877C 591.447,889.982 611.114,889.648 630.5,876C 662,844.5 693.5,813 725,781.5C 725.667,780.833 725.667,780.167 725,779.5C 604.986,659.653 485.153,539.653 365.5,419.5C 425.653,358.847 485.986,298.347 546.5,238C 567.774,218.145 592.107,213.145 619.5,223C 630.442,227.134 640.442,232.801 649.5,240C 700.861,291.694 752.528,343.028 804.5,394C 752.32,446.347 699.986,498.514 647.5,550.5C 640.564,542.732 633.064,535.399 625,528.5C 624.333,527.833 624.333,527.167 625,526.5C 659.014,492.653 692.847,458.653 726.5,424.5C 692.623,389.456 657.957,355.289 622.5,322C 594.593,306.731 570.927,311.564 551.5,336.5 Z M 829.5,421.5 C 812.188,439.146 794.855,456.813 777.5,474.5C 801.848,499.681 826.681,524.348 852,548.5C 864.044,559.546 873.378,572.546 880,587.5C 886.451,601.222 885.785,614.556 878,627.5C 860.667,644.833 843.333,662.167 826,679.5C 784,637.5 742,595.5 700,553.5C 691.985,561.348 684.152,569.348 676.5,577.5C 735.833,637.5 795.5,697.167 855.5,756.5C 895.486,717.014 935.32,677.347 975,637.5C 987.75,621.161 989.75,603.494 981,584.5C 975.504,572.162 968.504,560.828 960,550.5C 916.916,506.916 873.416,463.916 829.5,421.5 Z M 338.5,446.5 C 304.868,480.632 271.035,514.632 237,548.5C 230.43,557.424 225.097,567.091 221,577.5C 210.107,604.929 214.107,629.929 233,652.5C 284.333,703.833 335.667,755.167 387,806.5C 438.167,755.333 489.333,704.167 540.5,653C 522.986,635.319 505.319,617.819 487.5,600.5C 454.5,633.167 421.5,665.833 388.5,698.5C 366.847,677.347 345.347,656.014 324,634.5C 317.024,625.58 313.191,615.413 312.5,604C 314.162,587.517 320.329,573.017 331,560.5C 342.833,548.667 354.667,536.833 366.5,525C 367.5,524.333 368.5,524.333 369.5,525C 388,543.5 406.5,562 425,580.5C 433.015,572.652 440.848,564.652 448.5,556.5C 412.146,519.479 375.479,482.812 338.5,446.5 Z"/></g>
<g><path style="opacity:0.968" fill="#016fa9" d="M 918.5,158.5 C 922.21,160.785 925.71,163.452 929,166.5C 929.167,168 929.333,169.5 929.5,171C 927.284,186.505 925.451,202.005 924,217.5C 932.291,205.917 941.291,194.917 951,184.5C 955.068,186.561 958.568,189.395 961.5,193C 947.304,210.852 932.804,228.352 918,245.5C 914.502,243.079 911.169,240.412 908,237.5C 907.833,236.167 907.667,234.833 907.5,233.5C 909.577,218.134 911.411,202.801 913,187.5C 904.5,198 896,208.5 887.5,219C 886.5,219.667 885.5,219.667 884.5,219C 881.341,216.768 878.674,214.101 876.5,211C 890.7,193.636 904.7,176.136 918.5,158.5 Z"/></g>
<g><path style="opacity:0.961" fill="#016fa9" d="M 986.5,219.5 C 989.263,219.744 991.429,221.077 993,223.5C 994.919,225.691 996.253,228.024 997,230.5C 981.167,245.667 965.333,260.833 949.5,276C 948.833,276.667 948.167,276.667 947.5,276C 944.667,273.167 941.833,270.333 939,267.5C 938.251,266.365 938.417,265.365 939.5,264.5C 955.517,249.815 971.184,234.815 986.5,219.5 Z"/></g>
<g><path style="opacity:0.964" fill="#016fa9" d="M 181.5,248.5 C 182.552,248.351 183.552,248.517 184.5,249C 198.296,260.461 211.796,272.294 225,284.5C 231.984,275.85 239.318,267.516 247,259.5C 250.73,261.224 253.897,263.724 256.5,267C 246.363,279.637 235.696,291.803 224.5,303.5C 207.352,288.853 190.352,274.02 173.5,259C 176.407,255.605 179.073,252.105 181.5,248.5 Z"/></g>
<g><path style="opacity:0.973" fill="#016fa9" d="M 998.5,304.5 C 1014.34,300.11 1030,295.11 1045.5,289.5C 1049.37,293.209 1052.71,297.376 1055.5,302C 1032.73,309.033 1009.9,315.866 987,322.5C 983.705,320.538 981.038,317.872 979,314.5C 977.711,312.945 977.044,311.279 977,309.5C 990.5,289.833 1004,270.167 1017.5,250.5C 1020.33,254.167 1023.17,257.833 1026,261.5C 1026.67,262.5 1026.67,263.5 1026,264.5C 1016.61,277.714 1007.45,291.047 998.5,304.5 Z"/></g>
<g><path style="opacity:0.97" fill="#016fa9" d="M 138.5,307.5 C 162.951,311.575 187.285,316.075 211.5,321C 208.833,325 206.167,329 203.5,333C 197.864,333.089 192.364,332.255 187,330.5C 182.5,338.167 178,345.833 173.5,353.5C 176.643,357.811 179.977,361.978 183.5,366C 181.027,370.456 178.194,374.623 175,378.5C 159.976,359.805 145.309,340.805 131,321.5C 132.735,316.552 135.235,311.886 138.5,307.5 Z M 150.5,323.5 C 154.83,330.133 159.664,336.467 165,342.5C 167.458,337.747 170.292,333.247 173.5,329C 165.859,326.973 158.192,325.139 150.5,323.5 Z"/></g>
<g><path style="opacity:0.967" fill="#006fa9" d="M 1069.5,330.5 C 1070.82,330.33 1071.99,330.663 1073,331.5C 1080.3,345.938 1087.47,360.438 1094.5,375C 1091.4,378.051 1087.74,379.718 1083.5,380C 1078.37,369.566 1072.87,359.399 1067,349.5C 1062.95,351.11 1059.11,353.11 1055.5,355.5C 1060.37,365.411 1065.37,375.245 1070.5,385C 1066.84,388.019 1062.84,389.519 1058.5,389.5C 1053.67,379.833 1048.83,370.167 1044,360.5C 1038.75,363.206 1033.59,366.04 1028.5,369C 1034.04,379.912 1039.71,390.745 1045.5,401.5C 1042.43,404.124 1038.93,406.124 1035,407.5C 1026.84,393.176 1019.17,378.51 1012,363.5C 1011.33,362.5 1011.33,361.5 1012,360.5C 1031.46,350.853 1050.63,340.853 1069.5,330.5 Z"/></g>
<g><path style="opacity:0.569" fill="#2659c5" d="M 551.5,336.5 C 547.108,341.894 542.108,346.561 536.5,350.5C 540.892,345.106 545.892,340.439 551.5,336.5 Z"/></g>
<g><path style="opacity:0.973" fill="#016fa9" d="M 111.5,377.5 C 127.074,378.23 134.24,386.23 133,401.5C 137.385,398.527 142.218,396.694 147.5,396C 153.643,394.705 159.809,393.538 166,392.5C 166.833,392.833 167.667,393.167 168.5,393.5C 166.593,398.391 164.593,403.224 162.5,408C 152.838,410.333 143.172,412.666 133.5,415C 128.728,417.38 126.061,421.213 125.5,426.5C 134.376,429.237 143.042,432.571 151.5,436.5C 149.986,441.242 147.819,445.575 145,449.5C 124.301,441.064 103.468,433.064 82.5,425.5C 86.7757,412.178 91.9424,399.178 98,386.5C 101.16,381.346 105.66,378.346 111.5,377.5 Z M 109.5,393.5 C 105.416,400.057 102.082,407.057 99.5,414.5C 104.027,417.297 108.86,419.63 114,421.5C 116.994,414.684 119.494,407.684 121.5,400.5C 119.723,394.605 115.723,392.271 109.5,393.5 Z"/></g>
<g><path style="opacity:0.967" fill="#016fa9" d="M 1107.5,411.5 C 1108.5,411.414 1109.33,411.748 1110,412.5C 1114.28,424.995 1117.94,437.662 1121,450.5C 1121.42,464.083 1114.76,471.417 1101,472.5C 1093.73,471.548 1088.39,467.881 1085,461.5C 1078.84,472.169 1071.34,481.836 1062.5,490.5C 1060.06,485.026 1058.56,479.359 1058,473.5C 1064.24,466.015 1070.24,458.348 1076,450.5C 1077.93,445.898 1077.43,441.564 1074.5,437.5C 1066.17,440.167 1057.83,442.833 1049.5,445.5C 1046.51,441.349 1045.01,436.683 1045,431.5C 1066.01,425.106 1086.85,418.439 1107.5,411.5 Z M 1099.5,429.5 C 1095.43,431.443 1091.1,432.943 1086.5,434C 1088.6,440.959 1091.1,447.792 1094,454.5C 1095.47,456.152 1097.3,457.152 1099.5,457.5C 1104.56,457.106 1107.23,454.44 1107.5,449.5C 1106.14,442.745 1104.48,436.079 1102.5,429.5C 1101.5,429.5 1100.5,429.5 1099.5,429.5 Z"/></g>
<g><path style="opacity:0.969" fill="#0070a8" d="M 72.5,457.5 C 76.426,458.552 80.426,459.218 84.5,459.5C 83.4069,465.707 82.0735,471.874 80.5,478C 80.8333,478.5 81.1667,479 81.5,479.5C 99.5543,483.477 117.554,487.644 135.5,492C 134.185,496.407 133.185,500.907 132.5,505.5C 114.815,501.996 97.1479,498.329 79.5,494.5C 78.5581,494.608 77.7247,494.941 77,495.5C 75.5102,501.449 74.3435,507.449 73.5,513.5C 69.0637,512.974 64.7303,511.974 60.5,510.5C 64.5051,492.804 68.5051,475.137 72.5,457.5 Z"/></g>
<g><path style="opacity:0.965" fill="#016fa9" d="M 1112.5,504.5 C 1127.24,503.062 1135.74,509.728 1138,524.5C 1140.89,535.828 1138.05,545.328 1129.5,553C 1126.63,554.919 1123.63,555.419 1120.5,554.5C 1119.18,549.934 1118.52,545.268 1118.5,540.5C 1123.45,539.373 1126.12,536.207 1126.5,531C 1126.18,526.371 1124.52,522.371 1121.5,519C 1117.28,517.55 1114.78,519.05 1114,523.5C 1112.83,531.526 1111.5,539.526 1110,547.5C 1104.52,559.656 1095.35,563.823 1082.5,560C 1075.04,556.529 1070.54,550.696 1069,542.5C 1065.45,530.69 1067.62,520.19 1075.5,511C 1079.37,508.063 1083.71,506.229 1088.5,505.5C 1089.26,509.71 1090.26,513.877 1091.5,518C 1080.66,523.205 1077.83,531.371 1083,542.5C 1086.36,546.948 1090.36,547.615 1095,544.5C 1096.78,534.026 1099.11,523.693 1102,513.5C 1104.51,509.189 1108.01,506.189 1112.5,504.5 Z"/></g>
<g><path style="opacity:0.98" fill="#006fa9" d="M 56.5,545.5 C 79.135,546.962 101.802,547.962 124.5,548.5C 124.805,553.762 124.471,558.928 123.5,564C 109.507,571.328 95.8407,579.161 82.5,587.5C 96.1421,588.687 109.809,589.354 123.5,589.5C 122.686,594.119 122.353,598.786 122.5,603.5C 99.8394,602.379 77.1727,601.379 54.5,600.5C 54.1725,595.456 54.5059,590.456 55.5,585.5C 69.8333,577.667 84.1667,569.833 98.5,562C 84.1936,560.708 69.8602,559.874 55.5,559.5C 56.2295,554.87 56.5628,550.203 56.5,545.5 Z"/></g>
<g><path style="opacity:0.989" fill="#006fa8" d="M 1121.5,588.5 C 1128.17,588.5 1134.83,588.5 1141.5,588.5C 1141.5,593.5 1141.5,598.5 1141.5,603.5C 1118.83,603.5 1096.17,603.5 1073.5,603.5C 1073.5,598.833 1073.5,594.167 1073.5,589.5C 1089.68,589.83 1105.68,589.496 1121.5,588.5 Z"/></g>
<g><path style="opacity:0.97" fill="#0070a8" d="M 117.5,629.5 C 119.5,629.5 121.5,629.5 123.5,629.5C 125.992,646.772 127.992,664.105 129.5,681.5C 106.874,684.495 84.2072,687.162 61.5,689.5C 59.9512,673.276 57.9512,657.11 55.5,641C 55.6448,640.228 55.9781,639.561 56.5,639C 60.5101,638.499 64.5101,637.999 68.5,637.5C 69.5049,649.539 70.8382,661.539 72.5,673.5C 77.1522,673.002 81.8189,672.669 86.5,672.5C 85.1273,662.352 83.794,652.186 82.5,642C 82.6752,640.342 83.3418,639.009 84.5,638C 87.557,637.744 90.557,637.244 93.5,636.5C 95.9819,647.683 97.6485,659.016 98.5,670.5C 104.155,669.751 109.822,669.085 115.5,668.5C 114.331,655.816 112.998,643.149 111.5,630.5C 113.735,630.795 115.735,630.461 117.5,629.5 Z"/></g>
<g><path style="opacity:0.973" fill="#006fa9" d="M 1128.5,632.5 C 1132.81,633.08 1137.14,633.414 1141.5,633.5C 1139.21,651.799 1137.21,670.132 1135.5,688.5C 1131.86,687.92 1128.19,687.42 1124.5,687C 1123.57,686.612 1122.91,685.945 1122.5,685C 1123.78,678.904 1124.45,672.737 1124.5,666.5C 1106.14,664.746 1087.8,662.746 1069.5,660.5C 1069.83,655.833 1070.17,651.167 1070.5,646.5C 1089.23,647.988 1107.89,649.988 1126.5,652.5C 1127.53,645.878 1128.2,639.212 1128.5,632.5 Z"/></g>
<g><path style="opacity:0.966" fill="#006fa9" d="M 114.5,712.5 C 137.69,714.493 147.856,727.159 145,750.5C 141.019,763.145 132.519,770.978 119.5,774C 93.5194,780.34 78.5194,770.34 74.5,744C 74.5971,733.963 78.9304,726.463 87.5,721.5C 90.6496,725.119 93.3163,729.119 95.5,733.5C 84.888,742.581 85.2213,751.414 96.5,760C 109.883,762.762 121.383,759.262 131,749.5C 134.906,735.229 129.406,727.895 114.5,727.5C 114.5,722.5 114.5,717.5 114.5,712.5 Z"/></g>
<g><path style="opacity:0.969" fill="#016fa9" d="M 1128.5,714.5 C 1129.24,714.369 1129.91,714.536 1130.5,715C 1128.76,720.12 1127.09,725.287 1125.5,730.5C 1115.91,733.483 1106.24,736.316 1096.5,739C 1103.86,746.03 1110.86,753.364 1117.5,761C 1115.89,766.27 1114.06,771.437 1112,776.5C 1102.02,765.018 1091.85,753.684 1081.5,742.5C 1072.33,739.222 1063,736.556 1053.5,734.5C 1054.45,729.877 1055.78,725.377 1057.5,721C 1066.76,722.44 1075.93,724.607 1085,727.5C 1099.7,723.429 1114.2,719.096 1128.5,714.5 Z"/></g>
<g><path style="opacity:0.947" fill="#016fa9" d="M 799.5,1072.5 C 802.711,1072.23 804.711,1070.57 805.5,1067.5C 801.159,1057.14 797.826,1046.48 795.5,1035.5C 795.833,1034.17 796.167,1032.83 796.5,1031.5C 798.984,1033.48 801.317,1035.65 803.5,1038C 804.167,1038.67 804.833,1038.67 805.5,1038C 807.795,1035.24 808.795,1032.08 808.5,1028.5C 804.024,1028.18 802.524,1025.84 804,1021.5C 810.293,1020.08 814.46,1022.58 816.5,1029C 815.713,1031.1 815.38,1033.27 815.5,1035.5C 818.929,1033.75 822.595,1033.25 826.5,1034C 827.227,1035.4 827.727,1036.9 828,1038.5C 829.518,1036.39 829.851,1034.05 829,1031.5C 826.403,1030.79 823.903,1029.62 821.5,1028C 823.775,1020.03 828.775,1017.7 836.5,1021C 837.98,1022.3 838.646,1023.97 838.5,1026C 837.94,1030.01 836.773,1033.85 835,1037.5C 833.282,1048.18 835.782,1049.68 842.5,1042C 849.561,1038.86 853.895,1041.03 855.5,1048.5C 853.196,1055.82 848.196,1059.49 840.5,1059.5C 840.698,1057.42 840.865,1055.42 841,1053.5C 826.213,1062.81 812.046,1072.98 798.5,1084C 796.782,1084.35 795.115,1084.85 793.5,1085.5C 791.833,1085.17 790.833,1084.17 790.5,1082.5C 792.809,1078.53 795.809,1075.19 799.5,1072.5 Z M 822.5,1039.5 C 820.653,1041.86 819.32,1044.53 818.5,1047.5C 820.833,1048.5 822.5,1050.17 823.5,1052.5C 822.48,1054.43 822.313,1056.43 823,1058.5C 825.735,1056.27 827.902,1053.6 829.5,1050.5C 827.696,1049.23 825.696,1048.57 823.5,1048.5C 823.81,1045.29 823.477,1042.29 822.5,1039.5 Z M 809.5,1042.5 C 808.972,1043.72 808.305,1044.89 807.5,1046C 808.665,1051.5 810.665,1056.66 813.5,1061.5C 815.743,1060.59 816.743,1058.92 816.5,1056.5C 815.451,1054.15 814.118,1051.98 812.5,1050C 813.252,1047.85 813.419,1045.68 813,1043.5C 811.989,1042.66 810.822,1042.33 809.5,1042.5 Z"/></g>
<g><path style="opacity:0.968" fill="#016fa9" d="M 391.5,1020.5 C 397.237,1022.12 400.237,1025.96 400.5,1032C 399.792,1037.75 397.459,1042.75 393.5,1047C 400.436,1048.38 405.936,1051.88 410,1057.5C 411.123,1060.96 410.29,1063.79 407.5,1066C 403.229,1066.9 399.063,1068.07 395,1069.5C 396.272,1073.16 398.105,1076.66 400.5,1080C 399.833,1081.33 398.833,1082.33 397.5,1083C 389.39,1082.52 381.89,1080.02 375,1075.5C 374.25,1076.13 373.416,1076.63 372.5,1077C 367.333,1086.34 361.667,1095.34 355.5,1104C 350.7,1106.43 348.033,1104.93 347.5,1099.5C 350.902,1090.86 355.236,1082.7 360.5,1075C 357.42,1073.29 356.254,1070.79 357,1067.5C 359.47,1065.56 362.304,1064.4 365.5,1064C 368.875,1061.28 370.208,1057.95 369.5,1054C 363.432,1053.48 357.932,1054.98 353,1058.5C 347.661,1069.46 343.494,1068.96 340.5,1057C 341.346,1051.81 343.179,1046.97 346,1042.5C 347.396,1040.47 349.062,1040.14 351,1041.5C 351.333,1043.5 351.667,1045.5 352,1047.5C 352.725,1048.06 353.558,1048.39 354.5,1048.5C 361.999,1046.22 369.666,1044.72 377.5,1044C 381.995,1036.02 386.662,1028.19 391.5,1020.5 Z M 387.5,1055.5 C 386.315,1056.86 385.315,1058.36 384.5,1060C 384.905,1060.95 385.572,1061.61 386.5,1062C 390.187,1062.5 393.187,1061.33 395.5,1058.5C 393.255,1056.38 390.588,1055.38 387.5,1055.5 Z"/></g>
<g><path style="opacity:0.941" fill="#036fa9" d="M 799.5,1072.5 C 795.525,1073.57 793.025,1071.91 792,1067.5C 790.038,1062.34 789.205,1057.01 789.5,1051.5C 792.862,1051.07 795.695,1052.07 798,1054.5C 801.228,1060.4 801.728,1066.4 799.5,1072.5 Z"/></g>
<g><path style="opacity:0.946" fill="#016fa9" d="M 833.5,1065.5 C 836.93,1064.76 838.597,1066.09 838.5,1069.5C 837.053,1073.73 835.053,1077.73 832.5,1081.5C 832.833,1081.83 833.167,1082.17 833.5,1082.5C 837.772,1079.57 842.438,1078.41 847.5,1079C 848.357,1079.69 849.023,1080.52 849.5,1081.5C 847.295,1083.53 844.795,1085.19 842,1086.5C 842.147,1089.83 842.647,1093.16 843.5,1096.5C 843.202,1104.92 838.869,1109.75 830.5,1111C 814.103,1114.63 810.27,1109.46 819,1095.5C 821.333,1093.17 823.667,1090.83 826,1088.5C 826.977,1085.74 826.144,1083.74 823.5,1082.5C 821.393,1084.53 819.393,1086.7 817.5,1089C 814.998,1090.43 812.498,1090.6 810,1089.5C 809.333,1087.83 809.333,1086.17 810,1084.5C 816.525,1076.47 824.359,1070.13 833.5,1065.5 Z M 831.5,1094.5 C 828.26,1096.64 826.26,1099.64 825.5,1103.5C 832.951,1103.55 834.951,1100.55 831.5,1094.5 Z"/></g>
<g><path style="opacity:0.958" fill="#006fa9" d="M 656.5,1069.5 C 666.219,1072.43 669.885,1078.93 667.5,1089C 667.925,1093.09 668.592,1097.09 669.5,1101C 672.167,1101.67 674.833,1101.67 677.5,1101C 683.615,1098.78 689.615,1096.28 695.5,1093.5C 699.773,1096.06 700.44,1099.4 697.5,1103.5C 695.507,1105.5 693.173,1107 690.5,1108C 683.506,1109.78 676.506,1111.44 669.5,1113C 667.828,1118.33 666.661,1123.83 666,1129.5C 663.446,1139.38 657.446,1146.05 648,1149.5C 644.933,1148.6 643.933,1146.6 645,1143.5C 649.877,1136.25 654.377,1128.75 658.5,1121C 657.07,1119.56 655.403,1119.23 653.5,1120C 648.864,1123.74 643.697,1126.24 638,1127.5C 630.03,1127.27 628.53,1124.11 633.5,1118C 641.009,1114.61 648.675,1111.61 656.5,1109C 657.333,1108.17 658.167,1107.33 659,1106.5C 658.374,1095.41 656.874,1084.41 654.5,1073.5C 655.18,1072.14 655.847,1070.81 656.5,1069.5 Z"/></g>
<g><path style="opacity:0.933" fill="#016fa9" d="M 781.5,1080.5 C 782.978,1080.24 784.311,1080.57 785.5,1081.5C 789.67,1087.18 791.17,1093.51 790,1100.5C 785.266,1104.98 781.933,1103.98 780,1097.5C 779.123,1091.68 779.623,1086.02 781.5,1080.5 Z"/></g>
<g><path style="opacity:0.94" fill="#026fa9" d="M 525.5,1066.5 C 527.167,1066.5 528.833,1066.5 530.5,1066.5C 529.976,1075.68 534.143,1078.35 543,1074.5C 547.789,1074.62 549.456,1076.95 548,1081.5C 540.964,1083.59 533.797,1085.09 526.5,1086C 522.878,1090.74 519.378,1095.58 516,1100.5C 512.799,1104.04 509.299,1107.2 505.5,1110C 508.956,1109.91 511.956,1110.91 514.5,1113C 513.035,1114.89 511.369,1116.56 509.5,1118C 513.637,1119.04 517.137,1117.54 520,1113.5C 520.707,1111.92 521.54,1110.42 522.5,1109C 520.772,1105 522.106,1102.67 526.5,1102C 537.45,1100.45 548.45,1100.12 559.5,1101C 568.158,1103.42 570.991,1108.92 568,1117.5C 563.017,1133.65 554.851,1147.82 543.5,1160C 535.918,1160.43 531.585,1156.77 530.5,1149C 530.261,1146.74 531.261,1145.57 533.5,1145.5C 535.744,1146.59 537.578,1148.26 539,1150.5C 540.955,1149.55 542.622,1148.21 544,1146.5C 549.309,1136.88 553.809,1126.88 557.5,1116.5C 556.191,1112.15 553.191,1109.65 548.5,1109C 541.808,1108.17 535.142,1108.34 528.5,1109.5C 529.383,1110.55 530.05,1111.71 530.5,1113C 529.235,1114.66 527.901,1116.32 526.5,1118C 534.814,1122.6 534.147,1125.76 524.5,1127.5C 527.178,1128.55 529.678,1129.89 532,1131.5C 532.976,1135.53 531.309,1137.53 527,1137.5C 524.849,1137.23 522.849,1136.56 521,1135.5C 520.25,1136.13 519.416,1136.63 518.5,1137C 516.498,1142.33 514.998,1147.83 514,1153.5C 509.764,1157.98 507.598,1157.14 507.5,1151C 508.449,1146.85 508.949,1142.68 509,1138.5C 506.263,1137.44 503.43,1136.61 500.5,1136C 497.997,1134.45 497.997,1132.78 500.5,1131C 504.687,1130.93 508.687,1130.26 512.5,1129C 509.897,1127.13 507.064,1125.63 504,1124.5C 503.175,1122.3 503.675,1120.47 505.5,1119C 499.859,1117.43 499.192,1114.76 503.5,1111C 501.224,1111.57 498.891,1111.41 496.5,1110.5C 496.34,1108.8 496.506,1107.13 497,1105.5C 504.5,1099.33 511.333,1092.5 517.5,1085C 513.343,1083.09 509.176,1081.26 505,1079.5C 502.211,1074.67 503.378,1071.67 508.5,1070.5C 512.109,1071.2 515.609,1072.2 519,1073.5C 521.344,1071.32 523.511,1068.99 525.5,1066.5 Z"/></g>
<g><path style="opacity:0.953" fill="#016fa9" d="M 486.5,1100.5 C 487.978,1100.24 489.311,1100.57 490.5,1101.5C 491.722,1112.29 490.888,1122.96 488,1133.5C 485.413,1136.03 482.747,1136.03 480,1133.5C 477.954,1130.87 476.787,1127.87 476.5,1124.5C 478.093,1115.71 481.426,1107.71 486.5,1100.5 Z"/></g>
<g><path style="opacity:0.962" fill="#026fa9" d="M 683.5,1122.5 C 695.185,1124.43 705.351,1129.43 714,1137.5C 714.667,1140.5 714.667,1143.5 714,1146.5C 712.448,1147.97 710.614,1148.97 708.5,1149.5C 704.717,1148.44 701.383,1146.61 698.5,1144C 693.3,1139.13 688.467,1133.97 684,1128.5C 683.505,1126.53 683.338,1124.53 683.5,1122.5 Z"/></g>
</svg>
